<svg width="128" height="54" viewBox="0 0 128 54" fill="none" xmlns="http://www.w3.org/2000/svg">
<g clip-path="url(#clip0_2_2)">
<path d="M118.106 0H9.89372C4.42957 0 0 4.51105 0 10.0757V43.4515C0 49.0162 4.42957 53.5273 9.89372 53.5273H118.106C123.57 53.5273 128 49.0162 128 43.4515V10.0757C128 4.51105 123.57 0 118.106 0Z" fill="#D9D4D4"/>
<mask id="mask0_2_2" style="mask-type:luminance" maskUnits="userSpaceOnUse" x="9" y="5" width="38" height="38">
<path d="M46.3768 5.35272H9.89371V42.5069H46.3768V5.35272Z" fill="white"/>
</mask>
<g mask="url(#mask0_2_2)">
<path d="M20.028 11.5193C20.028 11.0776 20.3795 10.7195 20.8133 10.7195H38.2695C39.1904 10.8403 39.1904 12.1983 38.2695 12.3192H20.8133C20.3795 12.3192 20.028 11.9611 20.028 11.5193Z" fill="#DF783C"/>
<path d="M39.2828 13.6092H19.886C19.6274 13.6055 19.3722 13.5485 19.1358 13.4416C18.8995 13.3347 18.6867 13.1801 18.5107 12.9872C18.3344 12.7943 18.1985 12.5671 18.1109 12.3193C18.0234 12.0714 17.986 11.8081 18.001 11.5451C17.9997 11.0218 18.1938 10.5176 18.5437 10.1344C18.8936 9.75116 19.3734 9.51763 19.886 9.48099H39.2828C39.5517 9.48099 39.8094 9.37227 39.9995 9.1787C40.1895 8.98516 40.2963 8.72265 40.2963 8.44894C40.2963 8.17521 40.1895 7.91271 39.9995 7.71916C39.8094 7.52561 39.5517 7.41687 39.2828 7.41687H19.886C18.8358 7.45434 17.8407 7.90575 17.1109 8.67593C16.3812 9.44611 15.9735 10.4748 15.9742 11.5451C15.9644 11.7135 15.9644 11.8824 15.9742 12.0508C15.9644 12.1331 15.9644 12.2163 15.9742 12.2985V36.3147C15.9735 37.3849 16.3812 38.4136 17.1109 39.1839C17.8407 39.954 18.8358 40.4054 19.886 40.4429H39.2828C39.5517 40.4429 39.8094 40.3341 39.9995 40.1406C40.1895 39.947 40.2963 39.6845 40.2963 39.4107V14.7136C40.2968 14.4328 40.1924 14.1623 40.0042 13.9572C39.8159 13.752 39.558 13.6276 39.2828 13.6092Z" fill="#79797B"/>
</g>
<path d="M47.5764 40.3029V13.8541H67.7967V17.897H52.3254V24.3959H60.0054C63.1219 24.3959 65.484 25.0634 67.0918 26.3984C68.7242 27.7082 69.5405 29.6226 69.5405 32.1416C69.5405 34.7361 68.6377 36.7512 66.8321 38.187C65.0512 39.5976 62.5283 40.3029 59.2634 40.3029H47.5764ZM52.3254 36.5245H59.0037C60.8587 36.5245 62.2686 36.1593 63.2332 35.4288C64.1979 34.6983 64.6802 33.6403 64.6802 32.2549C64.6802 29.5345 62.788 28.1742 59.0037 28.1742H52.3254V36.5245ZM74.2026 47.8975C73.2379 47.8975 72.2733 47.7337 71.3087 47.4063C70.344 47.0788 69.5402 46.6254 68.8971 46.0461L70.7521 42.5699C71.2221 42.9981 71.7539 43.3382 72.3475 43.5901C72.9411 43.842 73.5471 43.9679 74.1655 43.9679C75.0064 43.9679 75.6866 43.7538 76.2061 43.3256C76.7255 42.8974 77.2078 42.1795 77.653 41.1719L78.8032 38.5271L79.1742 37.9603L86.6687 20.1263H91.1208L81.8455 41.9276C81.2271 43.439 80.5346 44.6355 79.7678 45.5171C79.0258 46.3987 78.1848 47.0158 77.2449 47.3685C76.3297 47.7211 75.3156 47.8975 74.2026 47.8975ZM78.2837 41.0208L69.3423 20.1263H74.1655L81.4374 37.5447L78.2837 41.0208ZM107.142 40.3029L99.9813 30.6302L103.766 28.2498L112.596 40.3029H107.142ZM92.932 40.3029V20.1263H97.5697V40.3029H92.932ZM96.1969 32.2171V28.2876H102.912V32.2171H96.1969ZM104.211 30.7813L99.87 30.2524L107.142 20.1263H112.113L104.211 30.7813Z" fill="#DF783C"/>
</g>
<defs>
<clipPath id="clip0_2_2">
<rect width="128" height="53.5273" fill="white"/>
</clipPath>
</defs>
</svg>
